<?xml version="1.0" encoding="UTF-8" standalone="no"?>
<!-- Created with Inkscape (http://www.inkscape.org/) -->

<svg
   xmlns:dc="http://purl.org/dc/elements/1.1/"
   xmlns:cc="http://creativecommons.org/ns#"
   xmlns:rdf="http://www.w3.org/1999/02/22-rdf-syntax-ns#"
   xmlns:svg="http://www.w3.org/2000/svg"
   xmlns="http://www.w3.org/2000/svg"
   xmlns:xlink="http://www.w3.org/1999/xlink"
   xmlns:sodipodi="http://sodipodi.sourceforge.net/DTD/sodipodi-0.dtd"
   xmlns:inkscape="http://www.inkscape.org/namespaces/inkscape"
   width="708.66138"
   height="708.66138"
   id="svg2"
   version="1.1"
   inkscape:version="0.48.3.1 r9886"
   sodipodi:docname="New document 1">
  <defs
     id="defs4">
    <linearGradient
       inkscape:collect="always"
       id="linearGradient3960">
      <stop
         style="stop-color:#0000ff;stop-opacity:1;"
         offset="0"
         id="stop3962" />
      <stop
         style="stop-color:#0000ff;stop-opacity:0;"
         offset="1"
         id="stop3964" />
    </linearGradient>
    <radialGradient
       inkscape:collect="always"
       xlink:href="#linearGradient3960"
       id="radialGradient3966"
       cx="48.104952"
       cy="59.13"
       fx="48.104952"
       fy="59.13"
       r="48.107597"
       gradientTransform="matrix(1,0,0,1.2291198,0,-13.547854)"
       gradientUnits="userSpaceOnUse" />
  </defs>
  <sodipodi:namedview
     id="base"
     pagecolor="#ffffff"
     bordercolor="#666666"
     borderopacity="1.0"
     inkscape:pageopacity="0.0"
     inkscape:pageshadow="2"
     inkscape:zoom="0.35"
     inkscape:cx="575.98041"
     inkscape:cy="520"
     inkscape:document-units="px"
     inkscape:current-layer="layer1"
     showgrid="false"
     units="cm"
     inkscape:window-width="1301"
     inkscape:window-height="744"
     inkscape:window-x="65"
     inkscape:window-y="24"
     inkscape:window-maximized="1" />
  <metadata
     id="metadata7">
    <rdf:RDF>
      <cc:Work
         rdf:about="">
        <dc:format>image/svg+xml</dc:format>
        <dc:type
           rdf:resource="http://purl.org/dc/dcmitype/StillImage" />
        <dc:title></dc:title>
      </cc:Work>
    </rdf:RDF>
  </metadata>
  <g
     inkscape:label="Layer 1"
     inkscape:groupmode="layer"
     id="layer1"
     transform="translate(0,-343.69947)">
    <g
       id="g3771"
       style="fill:#000080;fill-opacity:1;fill-rule:nonzero;stroke:none"
       transform="matrix(5.6927816,0,0,5.6927816,80.4797,361.41598)">
      <g
         id="g3773"
         style="fill:#000080;fill-opacity:1">
        <path
           id="path3775"
           style="fill:#000080;fill-opacity:1"
           d="M 86.068,0 C 61.466,0 56.851,35.041 70.691,35.041 84.529,35.041 110.671,0 86.068,0 z"
           inkscape:connector-curvature="0" />
        <path
           id="path3777"
           style="fill:#000080;fill-opacity:1"
           d="M 45.217,30.699 C 52.586,31.149 60.671,2.577 46.821,4.374 32.976,6.171 37.845,30.249 45.217,30.699 z"
           inkscape:connector-curvature="0" />
        <path
           id="path3779"
           style="fill:#000080;fill-opacity:1"
           d="M 11.445,48.453 C 16.686,46.146 12.12,23.581 3.208,29.735 -5.7,35.89 6.204,50.759 11.445,48.453 z"
           inkscape:connector-curvature="0" />
        <path
           id="path3781"
           style="fill:#000080;fill-opacity:1"
           d="M 26.212,36.642 C 32.451,35.37 32.793,9.778 21.667,14.369 10.539,18.961 19.978,37.916 26.212,36.642 l 0,0 z"
           inkscape:connector-curvature="0" />
        <path
           id="path3783"
           style="fill:#000080;fill-opacity:1"
           d="m 58.791,93.913 c 1.107,8.454 -6.202,12.629 -13.36,7.179 C 22.644,83.743 83.16,75.088 79.171,51.386 75.86,31.712 15.495,37.769 8.621,68.553 3.968,89.374 27.774,118.26 52.614,118.26 c 12.22,0 26.315,-11.034 28.952,-25.012 C 83.58,82.589 57.867,86.86 58.791,93.913 l 0,0 z"
           inkscape:connector-curvature="0" />
      </g>
    </g>
    <g
       transform="matrix(5.6927816,0,0,5.6927816,80.4797,361.41598)"
       style="fill:url(#radialGradient3966);fill-opacity:1;fill-rule:nonzero;stroke:none"
       id="g3880">
      <g
         style="fill:url(#radialGradient3966);fill-opacity:1"
         id="g3882">
        <path
           inkscape:connector-curvature="0"
           d="M 86.068,0 C 61.466,0 56.851,35.041 70.691,35.041 84.529,35.041 110.671,0 86.068,0 z"
           style="fill:url(#radialGradient3966);fill-opacity:1"
           id="path3884" />
        <path
           inkscape:connector-curvature="0"
           d="M 45.217,30.699 C 52.586,31.149 60.671,2.577 46.821,4.374 32.976,6.171 37.845,30.249 45.217,30.699 z"
           style="fill:url(#radialGradient3966);fill-opacity:1"
           id="path3886" />
        <path
           inkscape:connector-curvature="0"
           d="M 11.445,48.453 C 16.686,46.146 12.12,23.581 3.208,29.735 -5.7,35.89 6.204,50.759 11.445,48.453 z"
           style="fill:url(#radialGradient3966);fill-opacity:1"
           id="path3888" />
        <path
           inkscape:connector-curvature="0"
           d="M 26.212,36.642 C 32.451,35.37 32.793,9.778 21.667,14.369 10.539,18.961 19.978,37.916 26.212,36.642 l 0,0 z"
           style="fill:url(#radialGradient3966);fill-opacity:1"
           id="path3890" />
        <path
           inkscape:connector-curvature="0"
           d="m 58.791,93.913 c 1.107,8.454 -6.202,12.629 -13.36,7.179 C 22.644,83.743 83.16,75.088 79.171,51.386 75.86,31.712 15.495,37.769 8.621,68.553 3.968,89.374 27.774,118.26 52.614,118.26 c 12.22,0 26.315,-11.034 28.952,-25.012 C 83.58,82.589 57.867,86.86 58.791,93.913 l 0,0 z"
           style="fill:url(#radialGradient3966);fill-opacity:1"
           id="path3892" />
      </g>
    </g>
    <g
       id="g3956"
       transform="matrix(0.96420334,0,0,0.96420334,897.25804,175.26779)"
       style="fill:#ffffff">
      <path
         id="path3787"
         style="font-size:148.699646px;font-style:normal;font-variant:normal;font-weight:bold;font-stretch:normal;text-align:start;line-height:125%;writing-mode:lr-tb;text-anchor:start;fill:#ffffff;fill-opacity:1;stroke:none;font-family:Bitstream Vera Sans"
         d="m -565.99523,509.46063 c -8.08731,0.21792 -14.47394,3.12448 -19.17071,8.69866 -4.86385,5.80101 -7.31024,13.81651 -7.31024,24.03862 0,10.19394 2.44651,18.18745 7.31024,23.98846 4.88761,5.801 11.59815,8.69866 20.15764,8.69866 8.5831,0 15.3105,-2.89766 20.17436,-8.69866 4.86373,-5.80101 7.29358,-13.79452 7.29353,-23.98846 -5e-5,-10.22211 -2.4298,-18.23761 -7.29353,-24.03862 -4.86386,-5.80075 -11.59131,-8.69866 -20.17436,-8.69866 -0.33434,0 -0.6582,-0.009 -0.98693,0 z m 0.60221,11.77669 c 0.12927,-0.003 0.25357,0 0.38472,0 4.21998,0 7.48996,1.8261 9.8028,5.48697 2.31266,3.66086 3.47944,8.82788 3.47949,15.47362 0,6.61757 -1.16692,11.74604 -3.47949,15.40691 -2.31274,3.66086 -5.58286,5.50352 -9.8028,5.50352 -4.19632,0 -7.43983,-1.84266 -9.75257,-5.50352 -2.31274,-3.66087 -3.47944,-8.78934 -3.47949,-15.40691 0,-6.64574 1.16684,-11.81276 3.47949,-15.47362 2.24035,-3.54647 5.35963,-5.37604 9.36785,-5.48697 z"
         inkscape:connector-curvature="0" />
      <path
         id="path3789"
         style="font-size:148.699646px;font-style:normal;font-variant:normal;font-weight:bold;font-stretch:normal;text-align:start;line-height:125%;writing-mode:lr-tb;text-anchor:start;fill:#ffffff;fill-opacity:1;stroke:none;font-family:Bitstream Vera Sans"
         d="m -657.35432,568.97161 c -7.12362,5.98235 -17.72219,5.91366 -22.13752,5.91366 -8.8932,0 -15.93855,-2.92879 -21.13613,-8.78612 -5.19765,-5.88525 -7.7964,-13.85456 -7.7964,-23.90791 0,-10.16578 2.64646,-18.16325 7.93945,-23.99241 5.293,-5.82892 12.54098,-8.74363 21.74413,-8.74363 3.55245,0 6.94991,0.39433 10.19254,1.18273 3.26638,0.78841 6.34203,1.95706 9.22697,3.50595 l -3.70487,10.9527 c -1.62185,-0.88773 -3.4788,-1.76286 -5.20022,-2.37807 -2.93262,-0.98557 -5.87712,-1.47823 -8.83351,-1.47823 -5.48379,0 -9.71581,1.81623 -12.69601,5.44892 -2.95649,3.60454 -4.4347,8.7718 -4.4347,15.50204 0,6.67415 1.4305,11.82733 4.29167,15.46003 2.86099,3.6327 7.16068,5.44892 12.19522,5.44892 5.11476,0 8.28269,-1.28922 9.97226,-2.64762 l 0,-10.91144 -11.08087,0 0,-10.89809 21.45799,0"
         inkscape:connector-curvature="0" />
      <path
         id="path3793"
         style="font-size:148.699646px;font-style:normal;font-variant:normal;font-weight:bold;font-stretch:normal;text-align:start;line-height:125%;writing-mode:lr-tb;text-anchor:start;fill:#ffffff;fill-opacity:1;stroke:none;font-family:Bitstream Vera Sans"
         d="m -528.50252,510.59568 17.5241,0 12.15952,39.37066 12.23105,-39.37066 14.81181,0 6.69132,63.06461 -13.01787,0 -4.0148,-39.4349 -12.30257,39.62391 -8.72628,0 -12.30263,-40.9623 -4.01479,40.77329 -13.05365,0 6.69132,-63.06461"
         inkscape:connector-curvature="0" />
      <path
         id="path3795"
         style="font-size:148.699646px;font-style:normal;font-variant:normal;font-weight:bold;font-stretch:normal;text-align:start;line-height:125%;writing-mode:lr-tb;text-anchor:start;fill:#ffffff;fill-opacity:1;stroke:none;font-family:Bitstream Vera Sans"
         d="m -455.68828,510.59568 37.15811,0 0,12.29183 -23.38928,0 0,13.08097 17.97969,0 0,10.95369 -17.97969,0 0,14.44629 24.17608,0 0,12.29183 -37.94491,0 0,-63.06461"
         inkscape:connector-curvature="0" />
      <path
         id="path3791"
         style="font-size:148.699646px;font-style:normal;font-variant:normal;font-weight:bold;font-stretch:normal;text-align:start;line-height:125%;writing-mode:lr-tb;text-anchor:start;fill:#ffffff;fill-opacity:1;stroke:none;font-family:Bitstream Vera Sans"
         d="m -647.94283,510.59568 8.6869,0 27.44915,37.90083 0,-37.90083 11.71533,0 0,63.06461 -8.6869,0 -27.4491,-37.90083 0,37.90083 -11.71538,0 0,-63.06461"
         inkscape:connector-curvature="0" />
    </g>
    <g
       style="font-size:64px;font-style:normal;font-weight:normal;line-height:125%;letter-spacing:0px;word-spacing:0px;fill:#ffffff;fill-opacity:1;stroke:none;font-family:Sans"
       id="text3060">
      <path
         d="m 204.48694,746.5614 0,6.15625 c -2.39587,-1.14579 -4.65628,-1.99996 -6.78125,-2.5625 -2.12503,-0.56246 -4.17711,-0.84371 -6.15625,-0.84375 -3.43752,4e-5 -6.09377,0.66671 -7.96875,2 -1.85418,1.33337 -2.78126,3.22921 -2.78125,5.6875 -1e-5,2.06253 0.61457,3.62503 1.84375,4.6875 1.24998,1.0417 3.60415,1.88545 7.0625,2.53125 l 3.8125,0.78125 c 4.7083,0.89586 8.17705,2.47919 10.40625,4.75 2.24996,2.25002 3.37496,5.27085 3.375,9.0625 -4e-5,4.52084 -1.52087,7.94792 -4.5625,10.28125 -3.02086,2.33333 -7.45836,3.5 -13.3125,3.5 -2.20835,0 -4.56252,-0.25 -7.0625,-0.75 -2.47918,-0.5 -5.05209,-1.23958 -7.71875,-2.21875 l 0,-6.5 c 2.56249,1.43751 5.07291,2.52084 7.53125,3.25 2.45832,0.72917 4.87498,1.09376 7.25,1.09375 3.60414,10e-6 6.38539,-0.70833 8.34375,-2.125 1.9583,-1.41666 2.93747,-3.43749 2.9375,-6.0625 -3e-5,-2.29165 -0.70836,-4.08332 -2.125,-5.375 -1.39586,-1.29165 -3.69794,-2.2604 -6.90625,-2.90625 l -3.84375,-0.75 c -4.70835,-0.93748 -8.11459,-2.40622 -10.21875,-4.40625 -2.10417,-1.99997 -3.15626,-4.78122 -3.15625,-8.34375 -1e-5,-4.12496 1.44791,-7.37496 4.34375,-9.75 2.91665,-2.37495 6.92707,-3.56245 12.03125,-3.5625 2.18748,5e-5 4.41664,0.19797 6.6875,0.59375 2.2708,0.39588 4.59372,0.98963 6.96875,1.78125"
         style=""
         id="path3090" />
      <path
         d="m 242.08069,758.03015 0,5.375 c -1.62503,-0.8958 -3.26045,-1.56247 -4.90625,-2 -1.62503,-0.4583 -3.27086,-0.68747 -4.9375,-0.6875 -3.72919,3e-5 -6.62502,1.18753 -8.6875,3.5625 -2.06251,2.35419 -3.09376,5.66669 -3.09375,9.9375 -1e-5,4.27085 1.03124,7.59376 3.09375,9.96875 2.06248,2.35417 4.95831,3.53126 8.6875,3.53125 1.66664,10e-6 3.31247,-0.21874 4.9375,-0.65625 1.6458,-0.45833 3.28122,-1.13541 4.90625,-2.03125 l 0,5.3125 c -1.6042,0.75 -3.27086,1.3125 -5,1.6875 -1.70836,0.375 -3.53127,0.5625 -5.46875,0.5625 -5.27085,0 -9.45835,-1.65625 -12.5625,-4.96875 -3.10417,-3.31249 -4.65626,-7.78124 -4.65625,-13.40625 -1e-5,-5.70831 1.56249,-10.19789 4.6875,-13.46875 3.14582,-3.2708 7.4479,-4.90621 12.90625,-4.90625 1.77081,4e-5 3.49997,0.18754 5.1875,0.5625 1.68747,0.3542 3.32289,0.89587 4.90625,1.625"
         style=""
         id="path3092" />
      <path
         d="m 272.42444,762.0614 c -0.64586,-0.37497 -1.35419,-0.6458 -2.125,-0.8125 -0.75002,-0.18747 -1.58336,-0.28122 -2.5,-0.28125 -3.25002,3e-5 -5.75002,1.06253 -7.5,3.1875 -1.72918,2.10419 -2.59376,5.13544 -2.59375,9.09375 l 0,18.4375 -5.78125,0 0,-35 5.78125,0 0,5.4375 c 1.20832,-2.12497 2.78123,-3.69788 4.71875,-4.71875 1.93748,-1.04163 4.29164,-1.56246 7.0625,-1.5625 0.39581,4e-5 0.83331,0.0313 1.3125,0.0937 0.47914,0.0417 1.01039,0.11462 1.59375,0.21875 l 0.0312,5.90625"
         style=""
         id="path3094" />
      <path
         d="m 278.51819,756.6864 5.75,0 0,35 -5.75,0 0,-35 m 0,-13.625 5.75,0 0,7.28125 -5.75,0 0,-7.28125"
         style=""
         id="path3096" />
      <path
         d="m 301.83069,786.4364 0,18.5625 -5.78125,0 0,-48.3125 5.78125,0 0,5.3125 c 1.20832,-2.0833 2.72915,-3.62497 4.5625,-4.625 1.85415,-1.0208 4.06248,-1.53121 6.625,-1.53125 4.24997,4e-5 7.69788,1.68754 10.34375,5.0625 2.66663,3.37503 3.99996,7.81252 4,13.3125 -4e-5,5.50001 -1.33337,9.93751 -4,13.3125 -2.64587,3.375 -6.09378,5.0625 -10.34375,5.0625 -2.56252,0 -4.77085,-0.5 -6.625,-1.5 -1.83335,-1.02083 -3.35418,-2.57291 -4.5625,-4.65625 m 19.5625,-12.21875 c -3e-5,-4.22914 -0.87503,-7.54164 -2.625,-9.9375 -1.72919,-2.41664 -4.11461,-3.62497 -7.15625,-3.625 -3.04169,3e-5 -5.43752,1.20836 -7.1875,3.625 -1.72918,2.39586 -2.59376,5.70836 -2.59375,9.9375 -1e-5,4.22918 0.86457,7.55209 2.59375,9.96875 1.74998,2.39584 4.14581,3.59376 7.1875,3.59375 3.04164,10e-6 5.42706,-1.19791 7.15625,-3.59375 1.74997,-2.41666 2.62497,-5.73957 2.625,-9.96875"
         style=""
         id="path3098" />
      <path
         d="m 342.58069,746.7489 0,9.9375 11.84375,0 0,4.46875 -11.84375,0 0,19 c -1e-5,2.85418 0.3854,4.68751 1.15625,5.5 0.79165,0.81251 2.3854,1.21876 4.78125,1.21875 l 5.90625,0 0,4.8125 -5.90625,0 c -4.43751,0 -7.50001,-0.82291 -9.1875,-2.46875 -1.68751,-1.66666 -2.53126,-4.68749 -2.53125,-9.0625 l 0,-19 -4.21875,0 0,-4.46875 4.21875,0 0,-9.9375 5.78125,0"
         style=""
         id="path3100" />
      <path
         d="m 384.33069,757.71765 0,5.4375 c -1.62503,-0.8333 -3.31253,-1.4583 -5.0625,-1.875 -1.75002,-0.41663 -3.56252,-0.62497 -5.4375,-0.625 -2.85418,3e-5 -5.00001,0.43753 -6.4375,1.3125 -1.41668,0.87503 -2.12501,2.18753 -2.125,3.9375 -1e-5,1.33336 0.51041,2.38544 1.53125,3.15625 1.02082,0.75002 3.0729,1.46877 6.15625,2.15625 l 1.96875,0.4375 c 4.08331,0.87502 6.97914,2.1146 8.6875,3.71875 1.72914,1.58335 2.59372,3.8021 2.59375,6.65625 -3e-5,3.25001 -1.2917,5.82292 -3.875,7.71875 -2.56253,1.89583 -6.09377,2.84375 -10.59375,2.84375 -1.87502,0 -3.83335,-0.1875 -5.875,-0.5625 -2.02084,-0.35417 -4.15626,-0.89583 -6.40625,-1.625 l 0,-5.9375 c 2.12499,1.10417 4.21874,1.93751 6.28125,2.5 2.06249,0.54167 4.10415,0.81251 6.125,0.8125 2.70831,10e-6 4.79164,-0.45833 6.25,-1.375 1.45831,-0.93749 2.18747,-2.24999 2.1875,-3.9375 -3e-5,-1.56249 -0.53128,-2.7604 -1.59375,-3.59375 -1.04169,-0.83332 -3.34377,-1.6354 -6.90625,-2.40625 l -2,-0.46875 c -3.56251,-0.74998 -6.13543,-1.89581 -7.71875,-3.4375 -1.58334,-1.56248 -2.37501,-3.69789 -2.375,-6.40625 -1e-5,-3.29164 1.16666,-5.8333 3.5,-7.625 2.33332,-1.79163 5.64582,-2.68746 9.9375,-2.6875 2.12498,4e-5 4.12498,0.15629 6,0.46875 1.87497,0.31254 3.60414,0.78129 5.1875,1.40625"
         style=""
         id="path3102" />
    </g>
  </g>
</svg>
